<svg width="34" height="34" viewBox="0 0 34 34" fill="none" xmlns="http://www.w3.org/2000/svg">
<path fill-rule="evenodd" clip-rule="evenodd" d="M14.1984 9.64356C13.9816 9.05665 13.5344 8.42668 13.3045 8.08789C12.7735 7.30546 12.3237 6.79022 12.2316 6.02556C12.2219 5.94483 12.2117 5.58876 12.4171 5.30545C12.5604 5.10773 12.8156 4.91942 12.9448 4.85452C13.251 4.70064 13.3372 4.64946 13.7367 4.58775C13.8384 4.57205 14.1281 4.57391 14.2381 4.59232C14.6813 4.66636 14.7054 4.79585 15.0279 4.59653C15.3539 4.39511 15.5174 4.33849 15.9176 4.28416C16.1248 4.25599 16.4127 4.30184 16.4149 4.30243C16.8694 4.4183 17.085 4.51701 17.3478 4.73654C17.6112 4.95662 17.6923 4.88926 17.9153 4.77447C18.1452 4.65607 18.6275 4.56213 18.9635 4.59203C19.0005 4.5953 19.2381 4.62073 19.3028 4.63239C20.15 4.78492 20.5621 5.15872 20.6693 5.24483C21.3449 5.78735 21.2184 6.02073 21.3881 6.15915C21.5187 6.26566 21.6309 6.12658 22.0472 6.13089C22.117 6.13161 22.5229 6.13578 22.901 6.29342C23.1374 6.39194 23.1538 6.35946 23.5635 6.60861C23.8023 6.75383 23.9309 6.88333 23.962 6.91027C24.2682 7.17527 24.2421 7.19904 24.3967 7.37993C24.4241 7.41201 24.6122 7.63219 24.6926 7.81592C24.7502 7.94757 24.8631 8.14421 24.9034 8.48208C24.9284 8.69215 25.0338 8.65927 25.3673 8.74936C25.8624 8.88313 26.3593 9.35031 26.4085 9.39427C26.6933 9.64846 26.9809 10.1411 27.0251 10.2364C27.2971 10.823 27.2661 11.2501 27.2596 11.3406C27.2393 11.6203 27.1379 11.7892 27.1785 11.8999C27.2406 12.0694 27.6998 12.0769 28.2569 13.0758C28.483 13.4813 28.5489 14.0508 28.55 14.195C28.5561 15.0151 28.1513 15.0872 28.3852 15.3269C28.5984 15.5452 28.6132 15.535 28.9209 16.0357C29.0551 16.2541 29.2387 16.8576 29.2581 17.1267C29.2821 17.4591 29.276 17.5438 29.2734 17.58C29.2295 18.1945 29.139 18.5646 28.6832 19.0493C28.4674 19.2787 28.7095 19.421 28.8271 19.7507C28.9831 20.1875 28.9441 20.3994 28.9527 20.5447C28.9538 20.5632 28.9574 20.6248 28.9514 20.7767C28.9471 20.8847 28.8528 21.4407 28.5525 21.7959C28.2581 22.1439 28.1299 22.0914 28.0936 22.5166C28.0877 22.5857 28.0512 23.0132 27.8442 23.351C27.4915 23.9268 27.1608 23.9105 27.03 24.2325C27.0154 24.2683 26.9362 24.7265 26.2803 25.1742C26.1315 25.2757 25.8594 25.3713 25.7129 25.3781C25.157 25.4042 24.8567 25.1233 24.7275 25.0233C24.2298 24.6386 23.4661 23.6035 23.3949 23.5194C23.0492 23.1113 23.0416 23.1188 23.012 23.083C22.8086 22.8366 22.796 22.8487 22.5773 22.6152C22.5417 22.5774 22.313 22.3332 22.1088 22.1656C21.787 21.9016 21.4312 21.5796 20.7178 21.1328C20.4973 20.9948 20.5008 20.9914 20.2733 20.8647C19.8364 20.6214 19.8334 20.6273 19.7959 20.6054C19.7009 20.5499 19.363 20.3524 18.5274 20.0638C18.3715 20.01 17.7673 19.8502 17.6567 19.8277C16.9715 19.6885 16.7655 19.6783 16.6869 19.6744C16.539 19.6672 15.7292 19.5623 14.5853 19.8544C14.5551 19.8621 14.2752 19.9336 14.2089 19.9519C13.5441 20.135 12.9232 20.455 12.7782 20.5147C12.6523 20.5666 12.5181 20.645 12.4855 20.6603C12.2855 20.7545 11.6001 21.0306 11.5228 21.0617C11.3459 21.133 11.3405 21.1139 11.1624 21.1801C10.9936 21.243 10.9113 21.2522 10.7759 21.2974C10.3335 21.4455 10.311 21.4795 10.2925 21.4445C10.2692 21.4005 10.0931 21.5967 9.89664 21.5939C9.78984 21.5923 9.76613 21.5692 9.69476 21.5798C9.09056 21.6693 9.09225 21.6768 8.48425 21.7385C7.29834 21.8587 6.47031 21.6584 6.42114 21.6492C4.67373 21.3245 4.77062 20.553 5.22564 20.3781C5.56914 20.246 5.7043 20.4675 6.36232 20.6699C6.51489 20.7169 6.81498 20.7989 6.94619 20.8222C7.2337 20.8734 7.24558 20.859 7.43191 20.883C7.47073 20.888 7.70314 20.918 7.91935 20.9253C8.5462 20.9466 8.798 20.9533 9.51788 20.8451C10.4999 20.6976 10.9645 20.501 11.2277 20.4114C11.5174 20.3126 11.5112 20.2988 11.6846 20.2216C12.593 19.8168 12.9727 19.4498 13.3807 19.0906C13.4173 19.0583 13.5865 18.9093 13.8006 18.6484C14.1107 18.2707 14.2441 18.0398 14.2767 17.9832C14.683 17.2796 14.8423 16.7651 14.8918 16.6009C15.0551 16.0599 15.0331 16.0559 15.1299 15.4998C15.1849 15.184 15.2577 14.3643 15.1936 13.5904C15.1691 13.2949 15.169 13.2955 15.1253 13.0028C15.0239 12.3234 15.0089 12.3272 14.8735 11.655C14.8501 11.5391 14.6561 10.8812 14.5954 10.695C14.3813 10.0385 14.3614 10.0468 14.1984 9.64356ZM15.7695 19.0825C15.5246 19.1537 15.5281 19.1616 15.282 19.2299C15.2558 19.2372 15.2567 19.2401 14.9568 19.326C14.9452 19.3293 14.8322 19.3617 14.8188 19.389C14.8148 19.397 14.8328 19.4458 14.8553 19.4573C14.8893 19.4745 15.1524 19.3751 15.9394 19.2778C16.4374 19.2162 17.2597 19.0682 18.4259 19.1041C18.5837 19.1089 19.3988 19.134 20.3878 19.292C20.5068 19.311 20.7462 19.364 20.9035 19.3936C20.9196 19.3966 21.3677 19.4703 21.711 19.5587C21.7489 19.5685 21.7489 19.5667 22.1876 19.6711C22.4479 19.733 22.6451 19.7915 23.1701 19.9387C23.2658 19.9656 24.2028 20.2615 24.2421 20.2771C24.611 20.4235 24.7283 20.4365 24.9583 20.5418C25.0394 20.579 25.0432 20.568 25.9838 20.982C26.1026 21.0342 26.8837 21.4034 26.949 21.4396C27.7501 21.8837 27.7452 21.9243 27.855 21.9009C27.8614 21.8995 28.047 21.8392 28.182 21.7056C28.6534 21.2393 28.6262 20.6659 28.6213 20.3986C28.6163 20.1259 28.4977 19.6461 28.2766 19.4203C28.0362 19.1748 28.0087 19.2071 27.5776 19.1091C26.8807 18.9506 26.881 18.9525 26.1762 18.8299C25.2671 18.6718 23.4048 18.4933 22.2243 18.459C19.6946 18.3854 19.4211 18.4991 18.818 18.5311C18.711 18.5367 18.5441 18.5456 17.4859 18.6799C17.0894 18.7303 16.1772 18.9643 15.7695 19.0825ZM22.11 13.3828C22.33 13.2276 22.3272 13.2254 22.5436 13.0661C23.4292 12.4138 25.344 11.1693 25.3471 11.1675C25.819 10.8818 25.891 10.8016 25.9561 10.8159C25.9668 10.8183 26.0787 10.8428 25.985 10.9489C25.9103 11.0333 24.5987 11.884 22.8774 13.0848C22.3025 13.4859 20.395 14.8889 20.0602 15.1562C19.7845 15.3763 19.683 15.4269 19.5381 15.5397C19.1904 15.8103 19.1838 15.8011 19.1561 15.8275C19.1498 15.8334 19.0899 15.8903 19.0966 15.9163C19.1301 16.047 19.5527 15.6628 20.1232 15.3494C20.4073 15.1935 20.4037 15.1888 20.683 15.0245C21.0845 14.7882 21.6165 14.5165 21.6736 14.4812C22.212 14.1486 22.3785 14.1072 22.8075 13.8585C23.1508 13.6594 23.1843 13.6624 23.4781 13.5035C24.1595 13.1349 25.1469 12.6819 25.3232 12.5903C25.5242 12.4857 26.3365 12.1301 26.4984 12.0339C26.7033 11.9121 26.8398 11.6142 26.8741 11.4971C26.9714 11.1639 26.9196 10.9311 26.8432 10.679C26.6998 10.2058 26.2538 9.69666 26.243 9.68535C25.8099 9.23506 25.5077 9.14893 25.4051 9.10545C25.2631 9.04518 24.9586 8.98705 24.7697 9.12218C24.5983 9.2448 24.2797 9.91594 23.3308 11.0389C23.2616 11.1208 22.6795 11.8096 22.4455 12.0457C22.302 12.1903 22.0457 12.4715 21.9897 12.527C21.7426 12.7718 21.18 13.3908 20.9983 13.5488C20.8968 13.6371 19.6315 14.8883 19.5514 14.974C19.4468 15.0859 19.287 15.2148 19.1139 15.3849C18.9781 15.5183 18.9696 15.5076 18.8317 15.6388C18.2276 16.2137 17.5509 16.7954 17.3277 16.9659C17.305 16.9832 17.0605 17.1699 17.0681 17.2104C17.0821 17.2853 17.113 17.2717 17.18 17.2315C17.1876 17.227 17.9601 16.6772 18.0545 16.6056C18.0995 16.5714 18.0946 16.5665 18.5718 16.1234C18.9786 15.7455 19.4817 15.3804 19.6604 15.2329C19.9515 14.9927 19.9605 15.0057 20.259 14.7745C20.4892 14.5962 20.4794 14.584 22.11 13.3828ZM8.812 21.4212C9.06803 21.3974 9.09819 21.4067 9.57033 21.3169C9.7954 21.274 9.79369 21.269 10.0179 21.2191C10.3249 21.1508 10.3234 21.1474 10.625 21.0589C10.6769 21.0437 11.1489 20.9053 11.2699 20.8573C11.543 20.7487 11.9097 20.6203 11.98 20.564C12.0511 20.5069 12.0426 20.4557 11.9516 20.4559C11.9249 20.4559 11.766 20.5192 11.7502 20.5256C11.3717 20.6765 11.3676 20.6641 11.3348 20.6774C10.8798 20.8607 9.88872 21.0995 9.45613 21.154C8.72619 21.2458 8.31235 21.2367 8.23841 21.2387C7.87432 21.2485 7.63883 21.2227 7.17469 21.1805C6.7153 21.1389 6.43327 21.0722 6.32041 21.0885C6.25282 21.0983 6.19832 21.1785 6.24805 21.2345C6.29638 21.2888 7.06015 21.4608 7.46442 21.4686C8.11057 21.4812 8.11023 21.4822 8.812 21.4212ZM15.1677 5.01401C15.01 5.1945 14.9864 5.21756 14.7306 5.14703C14.5105 5.08632 14.4745 4.97367 14.043 4.94889C13.4435 4.91452 12.4305 5.35312 12.715 6.27327C12.8684 6.76937 13.1088 7.00664 13.44 7.49605C13.6553 7.81422 13.6822 7.79605 13.9618 8.28267C14.0934 8.51182 14.0985 8.50789 14.221 8.74256C14.3437 8.97736 14.361 8.96703 14.4683 9.20935C14.5437 9.37954 14.5512 9.37501 14.6187 9.54902C14.638 9.59882 14.6957 9.70173 14.7319 9.79237C14.7722 9.89316 14.8156 10.0246 14.8224 10.045C14.8844 10.2328 15.3311 11.3532 15.5212 12.7383C15.5886 13.2292 15.5858 13.2291 15.6163 13.7247C15.6168 13.7318 15.6526 14.0237 15.6268 14.6034C15.5924 15.3765 15.4367 15.9853 15.4304 16.0161C15.2905 16.7116 15.0981 16.969 15.189 16.9909C15.2306 17.001 15.2373 17.0054 15.2622 16.9697C15.3585 16.8317 15.6884 15.7706 15.7877 15.1682C15.8332 14.8926 15.8877 14.2776 15.8928 14.2335C15.9021 14.1532 15.9431 13.6413 15.9472 13.5897C15.9506 13.5476 15.9363 13.4781 16.0193 13.0315C16.1429 12.3658 16.0985 12.1053 16.1186 11.6371C16.1262 11.4593 16.0952 10.5697 16.0919 10.4769C16.0884 10.3747 16.0697 9.83842 15.9938 9.20389C15.9532 8.86401 15.8929 8.51711 15.8826 8.45765C15.7647 7.77899 15.6952 7.54192 15.6724 7.46404C15.5543 7.06133 15.5703 7.05753 15.4337 6.6301C15.2398 6.02345 14.9938 5.49217 15.0483 5.41887C15.131 5.30768 15.2 5.43901 15.2059 5.45026C15.2361 5.50778 15.5119 6.13616 15.6346 6.55865C15.6441 6.59119 15.903 7.30612 16.0695 8.26765C16.0916 8.39574 16.1879 9.01643 16.198 9.08155C16.2658 9.51824 16.2469 9.61185 16.2921 10.022C16.3178 10.2559 16.3354 11.1556 16.3373 11.2543C16.3377 11.272 16.3383 11.2962 16.3358 11.988C16.3356 12.0338 16.3281 12.0335 16.3191 12.5596C16.3174 12.6633 16.2868 12.8989 16.283 12.9283C16.2701 13.0275 16.1432 13.8184 16.1308 13.8957C16.0349 14.4927 15.9787 14.5438 16.0702 14.5535C16.1429 14.5612 16.1429 14.4313 16.1978 14.211C16.2816 13.8749 16.348 13.574 16.3602 13.5184C16.6971 11.9894 16.6664 11.8208 16.7547 10.9152C16.7875 10.5789 16.7878 10.2125 16.7878 10.1513C16.788 9.99809 16.8548 8.45606 16.5286 6.53985C16.3976 5.77007 16.2677 5.54282 16.4166 5.53312C16.5403 5.52504 16.5967 5.90872 16.6876 6.30467C16.7876 6.73969 16.9369 7.95407 16.9425 8.34551C16.9435 8.41369 16.968 8.41169 16.9839 9.19651C16.9846 9.23143 16.9944 9.41299 16.9937 9.50442C16.988 10.2764 16.9935 10.5745 16.8621 11.8201C16.8587 11.8525 16.8505 11.8514 16.8041 12.2237C16.748 12.6734 16.4042 14.2321 16.2509 14.5673C16.1152 14.864 16.1162 14.8638 16.0203 15.1749C15.9748 15.3225 15.9663 15.3198 15.9371 15.4708C15.9223 15.547 15.9348 15.5863 16.0041 15.5491C16.0202 15.5404 16.0596 15.3987 16.0993 15.3038C16.1122 15.273 16.1079 15.272 16.2379 14.9116C16.2906 14.7652 16.2865 14.7645 16.3537 14.6229C16.4326 14.4567 16.512 14.1727 16.5371 14.0902C16.7746 13.3067 16.9385 12.7726 17.1588 11.5297C17.3271 10.5807 17.4156 9.6895 17.4517 9.32734C17.4559 9.28518 17.4541 9.28544 17.4894 8.79871C17.4932 8.74709 17.4909 8.74741 17.5155 8.15261C17.5659 6.93162 17.5034 5.47793 17.3882 5.26812C17.2245 4.96983 16.6567 4.60633 15.9584 4.66134C15.793 4.6744 15.4354 4.7524 15.2123 4.96745C15.1968 4.98237 15.1832 4.9991 15.1677 5.01401ZM15.3854 18.7715C15.5074 18.7262 15.5029 18.717 15.9367 18.468C16.1685 18.3348 16.7991 18.0007 16.9685 17.8883C17.6415 17.442 17.6475 17.4535 18.3463 17.0506C18.5569 16.9291 18.5525 16.9221 18.7752 16.8231C18.9292 16.7547 19.251 16.5697 19.8947 16.2756C20.0203 16.2182 20.7047 15.8818 20.817 15.8968C20.8622 15.9029 20.9854 15.9948 20.7445 16.1025C20.5083 16.208 20.5013 16.1895 20.1957 16.3437C20.0715 16.4065 19.6913 16.5737 19.6099 16.6188C19.3475 16.7645 18.9736 16.9174 18.8321 17.0015C18.5988 17.1401 18.589 17.1193 18.3528 17.2508C17.3474 17.8105 17.3336 17.8025 17.3265 17.8378C17.3085 17.9281 17.4133 17.8868 17.4212 17.8837C17.5004 17.8524 18.0606 17.5886 19.1129 17.2474C21.5136 16.4689 21.5355 16.5472 22.0888 16.3696C22.1663 16.3447 24.1436 15.8325 25.4479 15.5972C25.5237 15.5835 25.5227 15.5782 26.3928 15.4079C26.601 15.3671 27.5845 15.2268 27.7635 15.127C27.9506 15.0226 28.2908 14.5588 28.1674 13.8894C28.0559 13.2849 27.8032 12.9608 27.6996 12.8164C27.4196 12.426 27.1404 12.2379 26.7627 12.2206C26.6803 12.2168 26.68 12.2244 26.3863 12.3485C26.1411 12.452 23.6385 13.7099 23.5745 13.7467C23.3328 13.8855 22.7995 14.1466 22.6658 14.2247C22.3667 14.3996 21.8322 14.6703 21.5311 14.847C21.0655 15.1204 21.0566 15.1033 20.5906 15.3768C20.3585 15.513 20.3546 15.5042 20.1253 15.6443C19.9419 15.7564 19.4152 16.0517 18.693 16.5013C18.446 16.6551 17.9489 16.916 16.2938 18.0359C15.4334 18.6181 15.4316 18.6172 15.3731 18.6855C15.3395 18.7246 15.3574 18.73 15.3854 18.7715ZM12.7455 20.1346C12.8197 20.1101 12.8462 20.1307 13.5641 19.6561C13.8362 19.4763 14.2602 19.1848 14.3205 19.1434C14.3808 19.1018 14.3732 19.0921 15.0534 18.5947C15.3155 18.403 15.7211 18.0389 15.7587 18.0005C15.8323 17.9249 16.0354 17.7014 16.0593 17.6752C16.1315 17.5957 16.1212 17.5875 16.9114 16.6392C17.3298 16.1371 17.3453 16.1504 17.7449 15.6338C17.8462 15.5028 17.8587 15.5141 17.9911 15.3308C18.0761 15.2131 18.08 15.2173 18.1638 15.0993C18.2542 14.9718 18.266 14.9816 18.5046 14.6324C18.5947 14.5003 19.0064 13.9436 19.1632 13.6842C19.1821 13.653 19.1862 13.6563 19.4217 13.3079C19.5445 13.1263 19.7753 12.7501 19.8054 12.7011C19.8959 12.5536 20.0225 12.3901 20.1498 12.1522C20.1805 12.0948 20.1841 12.0975 20.5653 11.4527C20.6069 11.3822 21.593 9.61707 22.1149 8.42879C22.1412 8.36899 22.3668 7.85554 22.475 7.6956C22.4839 7.68254 22.5853 7.53262 22.6465 7.59687C22.6973 7.65023 22.6229 7.7758 22.5688 7.91115C22.4362 8.24273 21.8264 9.57066 21.6568 9.87249C21.6542 9.87728 21.342 10.524 21.0546 11.0157C20.7648 11.5115 20.7894 11.5242 20.4889 12.0143C20.3723 12.2045 20.0655 12.7207 19.8041 13.1117C19.7882 13.1356 19.7014 13.2655 19.6086 13.413C19.4608 13.648 18.3779 15.1815 18.1334 15.4628C17.9535 15.6698 17.9709 15.6828 17.6678 16.0242C17.6227 16.075 17.6319 16.0819 17.1267 16.6791C17.1038 16.7063 17.0984 16.701 16.8266 17.0063C16.5883 17.2738 16.5588 17.2732 16.5815 17.3129C16.635 17.4063 16.7421 17.254 17.0942 16.9091C17.1285 16.8755 17.1357 16.8853 17.5397 16.5063C17.8359 16.2283 17.851 16.2464 18.1429 15.9622C18.2192 15.8879 18.2873 15.8631 18.5499 15.61C18.6901 15.4749 18.6877 15.4743 18.8346 15.345C18.8501 15.3313 19.4223 14.7614 19.5727 14.6209C19.7532 14.4521 20.049 14.1217 20.3547 13.842C20.5315 13.6803 20.5481 13.6394 20.7007 13.5004C20.9068 13.3125 20.887 13.2938 21.0942 13.1073C21.2414 12.9748 22.5372 11.6139 22.8301 11.2518C22.8682 11.2046 22.9108 11.1724 23.2284 10.788C23.2542 10.7567 23.6877 10.2473 24.1688 9.5634C24.2218 9.48805 24.4469 9.13623 24.4956 9.00595C24.6654 8.55186 24.4808 8.16838 24.4496 8.10362C24.2844 7.76035 24.2257 7.6907 23.9457 7.36131C23.9447 7.36013 23.6607 7.05554 23.3908 6.90247C22.8956 6.62165 22.6036 6.54122 22.2054 6.48701C21.8011 6.43204 21.4526 6.58784 21.3865 6.75522C21.2707 7.04868 21.1764 7.80182 20.8007 8.86647C20.6359 9.33343 20.4911 9.78782 20.1677 10.5422C20.1273 10.6364 19.9771 11.0094 19.7783 11.4216C19.0867 12.8556 18.8831 13.1066 18.3831 13.9567C18.1765 14.3078 17.6244 15.1493 17.2114 15.7136C16.9255 16.1042 16.937 16.1118 16.6286 16.4853C16.5504 16.5799 16.3598 16.8525 16.282 16.8075C16.2729 16.8023 16.2186 16.771 16.2916 16.6766C17.096 15.636 18.113 14.0258 18.643 13.0866C18.69 13.0033 19.1065 12.2652 19.216 12.0381C19.2497 11.9682 19.3835 11.721 19.4735 11.5216C19.4916 11.4815 19.4951 11.4838 19.7035 11.0227C19.9415 10.4961 19.9263 10.4908 20.1528 9.96012C20.1734 9.91194 20.5747 8.81788 20.6892 8.42335C20.6999 8.3864 20.6994 8.3876 20.7101 8.35095C20.7878 8.08525 20.83 7.97969 20.9596 7.4438C21.1124 6.81233 21.3658 6.20032 20.5411 5.51343C20.4787 5.46148 20.1584 5.23879 19.9553 5.15713C19.7073 5.05743 19.5648 4.99124 19.1211 4.93481C18.7135 4.88292 17.9691 4.92931 17.7424 5.40465C17.659 5.57945 17.7552 5.8133 17.7647 6.47821C17.7651 6.5031 17.774 6.7036 17.774 6.78621C17.774 6.79615 17.7851 7.24801 17.7776 7.47616C17.7719 7.64644 17.7717 8.21695 17.7129 9.03233C17.6816 9.4662 17.6886 9.46584 17.6398 9.89905C17.5947 10.2996 17.5417 10.6556 17.5319 10.7212C17.5053 10.8995 17.3328 12.0566 17.1123 12.9365C16.9443 13.6069 16.946 13.6062 16.9262 13.6629C16.7525 14.1632 16.6858 14.4732 16.4537 15.0655C16.3677 15.2851 16.3743 15.2863 16.2602 15.5617C16.1405 15.8509 15.6225 16.9386 15.3387 17.3744C15.2675 17.4837 15.2278 17.5622 14.9886 17.9181C14.8606 18.1084 14.8497 18.0999 14.717 18.2864C14.6572 18.3705 14.1786 18.899 13.8459 19.201C13.2099 19.7783 13.1653 19.72 12.8539 19.9502C12.792 19.996 12.7403 20.0527 12.7401 20.0532C12.7391 20.0565 12.7467 20.055 12.7493 20.0951C12.7506 20.1156 12.7442 20.1147 12.7455 20.1346ZM19.7327 18.1587C19.7717 18.2209 19.7695 18.2222 19.7748 18.2258C19.783 18.2314 19.795 18.2248 19.805 18.2256C19.8849 18.232 19.884 18.2332 19.9638 18.2283C20.5369 18.1936 20.5362 18.2072 20.5859 18.2029C20.7017 18.193 20.8299 18.2061 21.1629 18.205C21.3111 18.2045 22.4016 18.2136 23.5617 18.287C24.176 18.3258 24.223 18.3494 24.3161 18.3559C24.7838 18.3885 25.3036 18.4782 25.4404 18.4945C26.5305 18.6238 27.747 18.9452 28.034 18.9369C28.2259 18.9313 28.4516 18.7096 28.5162 18.6174C28.6655 18.404 28.7474 18.289 28.8072 18.0672C28.9186 17.6537 29.0044 17.1853 28.6585 16.3307C28.553 16.0701 28.2821 15.6706 28.005 15.5178C27.7646 15.3853 27.669 15.4555 26.9131 15.574C26.3108 15.6685 25.7923 15.7895 25.4762 15.8487C24.5769 16.0173 24.0325 16.165 23.7145 16.2277C23.7076 16.229 22.7992 16.4544 22.6809 16.4879C21.9133 16.7053 21.9077 16.6787 21.1407 16.8977C20.7364 17.0131 20.7355 17.0089 20.7005 17.0196C19.5789 17.3616 19.5814 17.3697 19.4839 17.3992C19.3212 17.4482 19.324 17.4544 19.1615 17.505C18.6127 17.6756 17.2149 18.1767 17.0243 18.2582C16.2676 18.5819 16.0341 18.6127 16.0346 18.6954C16.0348 18.7286 16.047 18.7228 16.0808 18.7254C16.0949 18.7264 16.1082 18.7353 16.1223 18.7334C16.1532 18.7292 16.1826 18.717 16.2124 18.7076C16.4805 18.6238 16.9741 18.4926 16.9827 18.4905C17.452 18.3777 18.5444 18.0501 19.1857 17.9398C19.2498 17.9288 19.9613 17.8065 19.9873 17.8047C20.0646 17.7991 20.1578 17.8486 20.2801 17.8443C20.3242 17.8427 20.3238 17.8396 20.8264 17.7621C21.1968 17.7051 21.1968 17.7096 21.2289 17.7042C21.2808 17.6955 22.9759 17.4592 24.4358 17.3237C24.7591 17.2936 24.7591 17.307 25.0824 17.2797C25.5427 17.2411 26.604 17.2261 26.7143 17.2317C27.2829 17.26 27.4015 17.2273 27.7472 17.2954C27.7559 17.2971 27.8414 17.314 27.821 17.3771C27.7943 17.4591 27.5663 17.4446 27.5105 17.4439C26.7744 17.435 26.7743 17.4439 26.7104 17.4411C26.4424 17.4295 26.2203 17.4474 26.1333 17.4463C25.9475 17.4442 25.2325 17.481 25.1542 17.4851C24.9258 17.4969 24.927 17.5035 24.6978 17.5166C24.5337 17.5261 22.2332 17.7539 21.2751 17.8955C19.9536 18.0909 19.8147 18.1032 19.7675 18.1297C19.7621 18.1328 19.7671 18.1434 19.7623 18.1473C19.7542 18.1541 19.7408 18.1519 19.7327 18.1587ZM18.7885 19.3848C19.0754 19.4785 19.412 19.4883 20.0381 19.6501C21.504 20.029 23.3369 20.7369 23.5517 20.8337C23.749 20.9226 24.4029 21.1767 24.6508 21.2892C25.1785 21.5286 25.183 21.5185 25.9735 21.9307C26.3406 22.1221 26.3286 22.141 26.6919 22.3385C26.699 22.3424 26.7073 22.3437 26.7146 22.3472C26.727 22.3532 26.9183 22.4453 26.7707 22.509C26.666 22.5542 25.8159 22.0023 25.0556 21.6777C25.0102 21.6584 25.0152 21.6484 24.4935 21.4243C24.1923 21.2949 24.1933 21.2941 23.6453 21.0967C23.5479 21.0617 23.3099 20.9421 23.1166 20.8788C23.0471 20.856 22.2037 20.5057 21.6593 20.3305C21.543 20.293 21.3264 20.2028 20.9048 20.0852C19.5365 19.7035 19.3791 19.6793 19.0874 19.6153C18.4536 19.4762 17.6017 19.3415 17.5683 19.3837C17.5274 19.4351 17.555 19.4439 17.6135 19.471C17.79 19.5527 17.97 19.4653 19.1758 19.898C19.2277 19.9166 19.3385 19.9564 19.8053 20.1753C19.8264 20.1853 20.5518 20.4874 21.607 21.2474C21.6073 21.2475 22.2943 21.7558 22.5884 22.0422C22.6496 22.1018 22.7909 22.2119 22.906 22.3364C23.043 22.4845 23.0833 22.479 23.315 22.7573C23.342 22.7897 23.3459 22.786 23.6638 23.1538C23.7456 23.2484 23.7876 23.3291 24.3977 24.0526C24.664 24.3683 24.7459 24.52 25.215 24.84C25.641 25.1306 26.0226 24.9087 26.0831 24.8735C26.7433 24.4896 26.7303 23.9667 26.7725 23.8718C26.8973 23.5915 27.0397 23.7416 27.3835 23.4254C27.6081 23.2188 27.7501 22.8327 27.7659 22.6885C27.825 22.15 27.6777 22.1032 27.5605 22.0282C27.3823 21.9144 27.1259 21.7999 26.7692 21.6038C26.7112 21.5719 26.2936 21.3698 26.2395 21.3434C25.9805 21.217 24.8695 20.7209 23.7719 20.3608C23.3391 20.2187 23.335 20.2343 22.9001 20.0969C22.8572 20.0834 22.8536 20.0972 22.3561 19.95C22.2457 19.9173 20.9428 19.6176 20.4866 19.5502C20.2812 19.5199 20.283 19.5138 20.0764 19.4864C19.9337 19.4675 19.4804 19.3843 19.2945 19.37C19.1301 19.3574 18.8414 19.293 18.8108 19.3169C18.7919 19.3317 18.8074 19.37 18.7885 19.3848Z" fill="#C78B31"/>
<path fill-rule="evenodd" clip-rule="evenodd" d="M17.6115 13.109C17.6043 13.1282 17.5304 13.3568 17.4496 13.3506C17.3471 13.3429 17.4014 13.1977 17.4063 13.1847C17.4708 13.012 17.9307 11.4417 18.0498 10.937C18.1716 10.4206 18.1891 10.4248 18.424 9.28791C18.6071 8.40115 18.6067 8.25748 18.7439 7.47389C18.8055 7.12178 18.779 7.11927 18.8439 6.76695C18.9223 6.34092 18.9183 5.80571 19.0797 5.8342C19.1593 5.84821 19.1552 5.89571 19.085 6.42938C19.0767 6.4924 19.0798 6.49193 18.9883 7.21777C18.9864 7.23308 18.9862 7.23286 18.8476 8.10509C18.7318 8.83453 18.7217 8.83243 18.6111 9.40012C18.5853 9.53271 18.4276 10.342 18.2305 11.0468C18.036 11.7423 18.0439 11.7435 17.8011 12.5324C17.7949 12.5528 17.6469 13.0104 17.6115 13.109Z" fill="#C78B31"/>
<path fill-rule="evenodd" clip-rule="evenodd" d="M20.4994 18.9729C20.5676 18.9749 20.5672 18.9747 20.573 18.975C20.5897 18.976 20.5885 18.9782 20.6057 18.9792C20.8206 18.9913 20.8206 18.9887 20.8393 18.99C21.6714 19.0508 21.6688 19.0708 21.7412 19.0755C21.9838 19.0912 21.981 19.1044 22.2283 19.1353C22.9817 19.2294 23.1551 19.2848 23.3411 19.3129C23.5836 19.3494 23.5812 19.3554 23.8228 19.4022C23.9055 19.4181 24.7074 19.5967 25.068 19.6955C25.8029 19.8968 25.8009 19.9026 25.8648 19.92C26.1024 19.9845 26.0981 19.9937 26.3322 20.0658C26.3773 20.0796 26.8596 20.2445 26.8625 20.2458C27.2211 20.4042 27.2269 20.3896 27.2579 20.4036C27.4402 20.4855 27.6547 20.5573 27.6821 20.6383C27.6844 20.645 27.6747 20.7503 27.5033 20.686C27.4838 20.6786 26.4601 20.3246 26.4318 20.3156C24.6981 19.7628 24.1771 19.6831 23.6356 19.5522C23.5195 19.5241 21.7681 19.2087 21.6357 19.2075C21.5269 19.2066 21.1341 19.1562 20.8406 19.1343C20.4918 19.1083 20.0106 19.092 19.8918 19.0843C19.8766 19.0832 19.6407 19.0678 19.7436 18.9678C19.7982 18.9148 20.2643 18.9852 20.4994 18.9729Z" fill="#C78B31"/>
<path fill-rule="evenodd" clip-rule="evenodd" d="M22.4733 15.2951C22.2209 15.4024 22.229 15.4187 21.973 15.5163C21.8704 15.5554 21.4691 15.7904 21.4686 15.6131C21.4685 15.5347 21.7431 15.4309 21.8677 15.3626C22.22 15.1692 22.257 15.1813 22.6547 14.9859C22.6931 14.967 23.5787 14.565 24.0635 14.3918C24.1262 14.3694 24.289 14.2892 24.4614 14.2276C25.4927 13.8591 25.494 13.8664 26.5438 13.556C26.6389 13.5278 26.9745 13.4516 27.032 13.4676C27.0508 13.4729 27.1832 13.5642 26.92 13.6515C26.909 13.6552 26.532 13.7723 26.4982 13.7828C26.0681 13.9164 26.0691 13.9159 25.6383 14.0465C25.614 14.0538 25.6145 14.0541 25.0116 14.2653C23.9406 14.6404 23.272 14.9492 22.9143 15.0913C22.8385 15.1214 22.8181 15.1453 22.4733 15.2951Z" fill="#C78B31"/>
<path fill-rule="evenodd" clip-rule="evenodd" d="M22.6735 12.3794C23.3275 11.81 23.8112 11.3352 23.8753 11.2831C24.2153 11.007 24.9364 10.3384 25.2376 10.1221C25.4655 9.95853 25.4711 10.0948 25.4671 10.1127C25.4536 10.1734 25.0468 10.5057 24.9252 10.6241C24.6432 10.8986 24.217 11.248 23.7519 11.6847C23.5136 11.9084 23.5109 11.9036 23.2696 12.1252C22.9973 12.3756 22.9906 12.3666 22.7442 12.5844C22.3911 12.8966 22.243 13.0014 22.2017 13.0376C21.7078 13.4695 21.4576 13.6324 21.2901 13.7934C21.2705 13.8123 20.9925 14.0795 20.9713 13.9138C20.9669 13.8797 21.1422 13.7209 21.1588 13.7059C21.1849 13.6822 21.3586 13.5249 21.4885 13.4143C21.8997 13.0646 21.9352 13.0194 22.6735 12.3794Z" fill="#C78B31"/>
<path fill-rule="evenodd" clip-rule="evenodd" d="M25.4573 23.7891C25.2215 23.5734 25.2358 23.5597 25.0011 23.3431C24.8601 23.2131 24.8674 23.2066 24.6851 23.0461C23.8407 22.3028 23.3681 21.9677 22.5396 21.4358C22.1773 21.2032 21.4071 20.825 21.3638 20.7697C21.2959 20.6828 21.3629 20.6493 21.4688 20.6819C21.5004 20.6916 22.2128 20.996 22.7562 21.3508C23.1498 21.6078 23.4199 21.7192 24.6641 22.7512C24.9034 22.9497 25.8456 23.8433 25.8436 23.964C25.8421 24.0575 25.72 24.0042 25.71 23.9998C25.6637 23.9796 25.4767 23.807 25.4573 23.7891Z" fill="#C78B31"/>
<path fill-rule="evenodd" clip-rule="evenodd" d="M22.8948 16.9035C23.2137 16.8354 25.2782 16.4771 25.6613 16.4431C26.3395 16.3831 26.5875 16.3198 27.4505 16.3421C27.729 16.3493 27.678 16.4441 27.6666 16.4605C27.6401 16.4985 27.6317 16.5105 27.0929 16.5301C25.7118 16.5804 24.0627 16.8986 23.9329 16.9183C23.1059 17.0434 22.4918 17.1789 22.3779 17.1785C22.2412 17.178 22.2116 17.0637 22.3274 17.0279C22.4142 17.0011 22.8102 16.9204 22.8948 16.9035Z" fill="#C78B31"/>
<path fill-rule="evenodd" clip-rule="evenodd" d="M15.3203 9.5983C15.3182 9.58915 15.2951 9.48371 15.2951 9.48371C15.1753 9.05888 15.1888 9.0554 15.0474 8.63698C15.0144 8.5391 14.7267 7.68771 14.5964 7.42793C14.4994 7.23467 14.5065 7.23242 14.4168 7.03552C14.2179 6.59862 13.9364 6.20142 13.8681 6.00821C13.8119 5.8488 13.9342 5.8247 14.0117 5.92607C14.0649 5.99566 14.3231 6.41598 14.3472 6.45879C14.8593 7.3678 14.981 7.87603 15.0983 8.15929C15.1817 8.36051 15.1652 8.36559 15.2416 8.56853C15.477 9.19403 15.7513 10.6898 15.7204 10.8693C15.6976 11.0014 15.6148 10.9154 15.6084 10.9087C15.6046 10.9048 15.5778 10.8269 15.5705 10.7572C15.5307 10.3799 15.3505 9.71771 15.3203 9.5983Z" fill="#C78B31"/>
<path fill-rule="evenodd" clip-rule="evenodd" d="M22.8878 21.0377C23.1467 21.1495 23.1399 21.1605 23.244 21.2096C23.2446 21.2099 23.7218 21.3613 24.0217 21.525C24.6032 21.8425 24.9984 22.0959 25.0812 22.1452C25.6692 22.4961 26.1917 22.916 26.5317 23.1608C26.5426 23.1686 26.6652 23.2569 26.6041 23.3118C26.5629 23.3489 26.5281 23.3893 26.1337 23.0988C25.7657 22.8277 25.7244 22.8119 25.6292 22.7444C24.7818 22.1442 23.7102 21.5758 23.4856 21.4986C23.2021 21.4012 22.7341 21.1364 22.6797 21.1016C22.5428 21.0141 22.6638 20.9763 22.6737 20.9732C22.691 20.9678 22.702 20.9644 22.8878 21.0377Z" fill="#C78B31"/>
<path fill-rule="evenodd" clip-rule="evenodd" d="M20.8103 17.3853C21.0826 17.3249 21.0825 17.325 21.0909 17.3234C21.7854 17.1952 21.7834 17.1881 21.8439 17.1778C22.0706 17.1393 22.072 17.2092 22.0771 17.222C22.0987 17.276 22.0683 17.3018 21.3692 17.4449C20.7605 17.5693 20.7647 17.5897 20.7111 17.596C20.5317 17.617 20.3954 17.6638 20.3634 17.6435C20.3355 17.6258 20.3566 17.5618 20.3617 17.5563C20.3959 17.5196 20.7738 17.3971 20.8103 17.3853Z" fill="#C78B31"/>
<path fill-rule="evenodd" clip-rule="evenodd" d="M16.8065 15.0182C16.7796 15.0848 16.7178 15.2515 16.6509 15.2471C16.5621 15.2412 16.6201 15.0738 16.6251 15.0592C16.7057 14.8268 16.875 14.493 16.9617 14.2824C17.0153 14.1522 17.0942 14.0016 17.1806 13.7959C17.1857 13.7839 17.2294 13.6798 17.268 13.6572C17.2806 13.6498 17.4126 13.6004 17.3322 13.8245C17.2943 13.9303 17.3069 13.9355 16.8065 15.0182Z" fill="#C78B31"/>
</svg>
