<?xml version="1.0" encoding="UTF-8" standalone="no"?>
<!DOCTYPE svg PUBLIC "-//W3C//DTD SVG 1.1//EN" "http://www.w3.org/Graphics/SVG/1.1/DTD/svg11.dtd">
<svg width="100%" height="100%" viewBox="0 0 383 458" version="1.1" xmlns="http://www.w3.org/2000/svg" xmlns:xlink="http://www.w3.org/1999/xlink" xml:space="preserve" xmlns:serif="http://www.serif.com/" style="fill-rule:evenodd;clip-rule:evenodd;stroke-linejoin:round;stroke-miterlimit:2;">
    <g transform="matrix(1,0,0,1,-1394.25208,-3226.430738)">
        <g id="ChatGPT-Image-Mar-19--2026-at-04_50_27-PM.png" serif:id="ChatGPT Image Mar 19, 2026 at 04_50_27 PM.png" transform="matrix(1.10917,0,0,1.10917,1360.697373,3196.005379)">
            <path d="M129.692,46.747C127.499,48.403 126.991,49.222 129.178,50.894C133.179,53.953 136.604,55.207 148.289,60.931C155.104,64.27 168.537,69.426 180.293,75.876C183.614,77.699 184.336,77.318 184.377,78.51C184.414,79.595 183.893,79.326 180.37,81.263C170.71,86.571 165.011,86.344 161.213,95.391C160.63,96.778 159.998,96.938 160.991,98.083C161.941,99.178 164.247,98.481 163.497,101.499C162.727,104.605 157.869,115.45 156.162,127.448C155.018,135.49 153.46,137.005 162.254,149.665C166.004,155.063 177.147,176.731 179.639,182.433C183.292,190.788 187.036,201.575 187.339,202.549C191.027,214.418 190.964,214.419 192.39,218.536C194.152,223.624 202.333,250.868 204.643,260.464C205.125,262.464 205.225,262.432 210.856,285.414C210.915,285.654 215.541,306.744 216.472,312.505C218.65,325.989 218.683,325.967 220.748,339.461C221.351,343.4 227.024,384.514 228.084,394.532C229.436,407.311 229.768,411.953 229.876,413.471C230.35,420.1 231.435,422.603 227.48,423.389C221.507,424.576 221.563,424.896 215.491,425.371C209.098,425.871 209.346,427.249 195.601,430.901C193.323,431.507 187.171,433.745 175.533,435.69C173.068,436.103 157.45,438.714 144.49,439.277C133.436,439.758 121.04,440.58 85.541,435.238C84.38,435.063 75.599,433.329 72.609,432.202C65.343,429.463 64.601,426.855 54.611,424.096C43.837,421.12 42.386,419.101 35.477,418.881C30.697,418.728 30.181,417.837 30.259,413.497C30.622,393.37 32.036,382.536 36.45,347.494C36.531,346.854 36.569,346.88 37.582,339.511C40.616,317.445 43.214,305.396 46.685,285.531C46.982,283.831 47.245,282.327 51.174,264.432C54.538,249.113 67.024,201.146 73.513,185.505C78.581,173.289 83.972,163.313 86.22,158.375C90.626,148.694 93.644,146.773 94.694,141.538C95.04,139.813 96.519,132.442 95.119,119.545C94.486,113.711 92.885,112.999 91.818,98.481C91.654,96.249 91.494,96.258 87.825,89.331C86.912,87.606 85.115,83.581 80.34,80.777C75.251,77.789 66.487,81.311 67.347,77.446C67.678,75.955 72.98,74.812 82.666,68.78C89.524,64.51 89.582,64.646 96.61,60.693C101.646,57.86 101.478,57.593 108.711,53.921C115.138,50.659 115.513,50.486 117.838,47.764C120.641,44.481 123.556,45.467 125.674,40.58C127.531,36.293 123.254,34.886 119.748,39.676C119.458,40.072 116.428,45.636 114.301,43.769C111.747,41.527 115.288,32.389 121.367,30.153C128.356,27.582 133.621,31.333 135.12,34.674C137.869,40.8 130.324,46.231 129.692,46.747ZM166.036,81.088C166.038,80.811 165.903,80.857 165.905,80.562C165.909,79.836 166.062,79.869 166.044,79.81C166,79.668 163.737,78.429 161.519,77.455C152.769,73.612 137.537,66.216 135.688,65.158C129.942,61.871 129.952,61.864 129.448,61.585C124.857,59.048 123.169,56.382 119.652,57.852C115.326,59.659 112.368,63.317 98.7,70.868C87.617,76.991 86.081,76.347 85.746,76.788C85.717,76.827 85.702,78.258 85.732,78.315C85.788,78.423 96.785,84.314 96.229,96.484C96.021,101.028 96.725,102.131 98.198,107.578C101.113,118.361 102.14,128.716 101.926,130.539C101.29,135.949 98.604,139.208 99.514,140.492C100.174,141.426 100.337,141.258 101.494,141.194C102.452,141.14 109.605,140.741 113.48,140.984C124.328,141.663 132.44,139.912 138.561,138.851C147.066,137.377 148.967,139.14 150.062,138.059C150.519,137.608 150.547,135.71 150.55,135.502C150.62,130.843 151.721,126.443 151.152,125.669C151.097,125.595 149.701,125.273 149.474,125.306C149.298,125.332 139.979,128.908 120.51,128.257C106.115,127.776 104.623,127.246 104.618,125.509C104.608,122.305 110.541,127.008 130.561,123.893C139.178,122.553 146.589,122.078 148.532,121.793C151.069,121.421 150.964,119.976 151.76,117.586C153.354,112.801 155.566,105.093 155.654,103.512C155.745,101.869 151.899,89.001 166.036,81.088ZM128.496,430.714C138.16,430.79 138.133,430.378 148.503,429.537C151.212,429.317 151.214,429.36 151.432,429.259C153.12,428.476 152.836,426.469 152.807,425.494C151.897,395.129 151.543,394.458 151.061,376.51C150.904,370.668 150.571,370.683 148.146,303.515C148.117,302.713 147.99,302.725 147.615,293.495C146.966,277.495 146.811,277.524 146.062,261.523C142.659,188.899 142.25,188.927 141.867,181.526C141.859,181.373 141.781,179.853 141.871,179.61C142.376,178.243 143.02,177.973 143.778,179.207C143.876,179.366 144.04,179.494 144.082,179.675C144.117,179.821 143.967,179.969 143.992,180.117C144.021,180.29 144.199,180.413 144.235,180.585C144.713,182.914 146.671,208.077 146.857,210.469C148.648,233.489 148.808,233.473 148.956,235.475C149.694,245.49 149.603,245.483 150.362,255.51C150.855,262.025 150.807,262.01 151.236,268.518C151.642,274.669 151.991,274.625 152.515,285.499C152.589,287.019 152.642,286.997 153.75,304.484C154.674,319.066 157.121,353.97 157.783,370.49C158.005,376.018 158.276,375.983 158.464,381.501C158.785,390.953 159.588,395.182 160.914,423.476C161.082,427.07 160.866,428.507 164.436,428.005C165.643,427.835 174.927,426.529 179.433,425.269C181.353,424.732 181.608,423.949 181.281,417.512C181.101,413.981 180.82,414.019 180.579,410.494C179.932,401.033 177.133,369.531 176.588,361.494C176.565,361.15 172.946,320.774 171.392,307.513C171.218,306.03 168.262,283.715 168.1,282.55C166.909,273.993 167.209,273.968 165.852,265.448C162.009,241.33 157.064,211.311 156.093,206.589C155.926,205.777 155.874,205.796 155.434,203.509C154.176,196.976 154.241,196.986 152.769,190.477C152.714,190.231 152.028,187.851 153.446,187.872C154.522,187.888 154.284,188.312 154.757,189.278C155.94,191.692 157.063,198.893 158.288,203.561C158.566,204.619 160.384,214.142 161.229,217.571C164.929,232.589 174.766,294.428 175.619,300.484C177.239,311.991 177.398,311.948 178.775,323.468C179.254,327.479 179.344,327.448 179.811,331.462C179.868,331.944 179.881,331.939 180.65,337.479C184.607,365.988 184.078,366.03 187.358,397.515C187.548,399.341 188.381,411.207 188.935,415.45C189.463,419.5 189.02,421.531 190.251,421.995C190.942,422.255 190.965,422.181 199.44,421.046C204.443,420.376 204.458,420.152 204.71,419.662C205.612,417.914 204.966,417.794 204.346,408.51C204.049,404.068 203.049,399.149 202.302,388.514C202.239,387.616 198.863,352.699 197.695,342.477C196.207,329.457 196.297,329.468 194.536,316.495C194.058,312.976 194.151,312.978 193.617,309.482C193.459,308.442 193.586,308.431 191.819,296.456C191.448,293.939 190.066,281.353 187.414,266.517C186.515,261.486 184.923,250.913 183.789,245.443C183.347,243.31 182.985,237.846 177.095,212.493C176.34,209.247 176.171,209.26 176.329,208.427C176.482,207.615 176.642,207.553 177.462,207.697C178.447,207.87 178.579,208.925 180.166,214.6C180.432,215.552 180.245,215.593 183.268,226.57C183.592,227.747 183.37,227.785 186.817,241.419C187.544,244.295 190.376,259.656 193.174,272.57C195.249,282.143 197.373,296.392 197.684,298.473C198.408,303.33 199.541,308.949 200.337,315.523C200.881,320.02 201.133,319.972 201.584,324.492C202.334,332 202.693,331.944 203.892,343.456C204.025,344.739 204.081,344.728 205.738,359.474C208.416,383.302 208.736,383.248 209.824,398.477C211.128,416.723 210.954,416.841 211.525,417.482C212.392,418.454 214.134,418.269 214.497,418.26C221.355,418.091 222.695,417.689 222.882,415.535C223.063,413.442 220.017,385.666 219.059,379.572C218.657,377.012 219.008,376.969 214.727,347.467C214.544,346.199 213.086,334.768 211.339,325.532C210.569,321.462 210.776,321.447 209.89,317.411C209.156,314.063 206.414,296.027 203.182,283.585C202.281,280.117 201.543,275.867 199.219,267.581C197.507,261.48 197.496,259.236 193.141,244.608C189.354,231.89 187.107,220.056 177.765,196.396C173.883,186.564 159.302,156.733 158.372,154.558C154.51,145.521 153.096,144.351 152.331,143.718C150.341,142.072 144.909,143.95 136.516,145.585C126.136,147.608 119.957,147.327 118.512,147.261C103.151,146.562 98.488,143.796 96.428,148.466C93.789,154.45 91.923,161.998 85.182,176.354C84.701,177.377 78.405,191.761 75.805,199.601C67,226.147 67.483,228.358 64.734,237.572C63.937,240.244 59.88,257.259 57.392,269.477C55.099,280.733 49.201,302.177 41.61,365.514C39.836,380.312 36.87,409.099 37.417,411.519C37.847,413.416 40.5,413.396 40.512,413.398C48.398,414.305 48.71,413.81 49.076,413.23C49.658,412.306 49.098,412.18 50.093,401.471C50.211,400.194 49.88,400.177 51.132,385.47C51.18,384.905 51.503,376.832 51.996,372.553C52.42,368.875 51.742,368.814 56.309,326.476C58.083,310.037 61.527,288.667 63.777,274.546C63.918,273.663 64.123,273.705 65.792,263.551C66.148,261.389 68.392,251.568 68.629,250.529C74.573,224.516 83.936,193.783 85.773,189.616C87.285,186.187 88.466,180.728 89.521,180.556C92.044,180.145 89.991,184.41 88.56,189.511C87.779,192.292 87.556,192.211 83.124,208.401C82.772,209.685 77.261,231.534 76.277,236.455C72.384,255.912 71.542,258.267 70.412,265.485C69.968,268.317 66.008,292.416 63.188,316.46C62.658,320.979 62.471,320.941 61.411,333.492C60.439,345.007 60.323,344.974 59.398,356.491C58.162,371.884 55.509,412.842 56.375,415.543C56.695,416.54 56.875,416.526 62.39,418.775C67.171,420.725 67.628,420.803 69.72,422.065C70.505,422.538 70.537,422.493 71.437,422.343C71.634,422.31 71.886,422.366 72.025,422.222C72.118,422.124 71.9,421.957 71.933,421.826C71.972,421.67 72.188,421.596 72.221,421.438C72.289,421.117 72.239,414.98 72.666,407.51C73.172,398.644 73.625,390.03 73.705,388.51C74.561,372.261 78.394,325.818 78.771,321.525C81.022,295.935 81.291,295.982 84.146,270.464C86.723,247.429 94.011,208.108 94.85,206.651C95.562,205.415 96.355,205.44 96.52,205.445C97.399,205.472 97.747,205.975 96.037,216.425C93.829,229.918 93.774,229.894 92.299,243.478C91.741,248.625 91.329,249.063 87.591,283.511C86.248,295.885 85.329,310.161 85.18,312.481C84.861,317.437 84.249,320.03 84.056,327.49C84.022,328.772 83.661,328.741 83.112,343.488C82.892,349.416 82.536,349.38 82.227,360.491C82.171,362.516 81.599,369.869 81.314,381.497C81.31,381.64 80.453,397.89 80.213,420.498C80.186,423.062 80.119,424.13 82.46,424.663C87.318,425.77 98.3,427.524 98.499,427.496C99.736,427.319 99.818,425.73 99.827,425.541C99.988,422.422 99.662,422.419 100.546,386.501C100.829,374.988 101.009,375.01 101.227,363.495C101.548,346.577 105.052,259.148 105.379,252.494C105.773,244.481 106.014,244.513 106.296,236.491C106.406,233.359 108.367,202.463 108.555,199.504C109.438,185.593 109.567,184.858 109.788,183.602C110.117,181.735 111.489,181.418 111.888,183.257C112.153,184.478 109.388,228.678 108.527,318.5C107.926,381.08 107.807,381.062 107.953,386.5C107.999,388.223 107.427,426.584 107.779,427.435C108.231,428.53 108.83,429.055 114.484,429.644C121.479,430.372 121.452,430.597 128.496,430.714Z" style="fill:rgb(26,56,93);"/>
            <path d="M219.247,227.648L218.193,229.543C218.154,229.7 218.219,229.686 218.555,231.525C218.591,231.85 218.492,232.179 218.527,232.504C218.653,233.665 218.893,233.612 219.061,236.527C219.238,239.576 220.141,239.55 225.539,240.033C228.23,240.274 234.202,240.136 236.428,242.612C237.143,243.407 235.839,243.651 236.396,244.561C236.603,244.899 237.197,244.676 237.585,244.597C237.768,244.559 237.951,244.407 238.01,244.229C238.125,243.884 238.001,243.495 238.072,243.137C238.614,240.427 244.287,238.71 244.216,242.548C244.178,244.631 242.386,246.741 241.353,249.439C239.82,253.439 237.725,250.789 237.249,248.569C237.182,248.259 237.319,247.859 237.101,247.628C235.731,246.184 235.442,246.87 233.461,247.071C230.243,247.398 217.166,247.523 215.36,246.831C213.111,245.97 212.917,242.528 213.43,232.496C213.829,224.679 212.806,224.69 212.83,200.499C212.856,172.595 212.838,172.59 215.039,151.454C215.147,150.418 215.804,144.112 216.746,138.544C217.379,134.804 217.941,132.597 218.418,129.487C219.251,124.065 221.188,115.902 222.334,108.473C223.35,101.884 224.966,94.635 225.232,93.439C226.315,88.583 228.621,81.821 229.611,77.526C230.642,73.054 230.927,72.144 234.607,70.808C244.79,67.113 247.036,64.614 257.595,60.759C266.858,57.377 271.499,55.73 280.59,46.59C286.024,41.126 281.41,40.599 279.636,38.4C277.828,36.16 279.86,32.705 280.109,32.282C280.75,31.193 282.666,24.479 296.359,28.95C297.535,29.334 301.51,30.59 300.648,33.561C299.996,35.807 297.923,34.287 297.732,34.146C295.962,32.848 295.958,32.541 292.549,32.633C292.411,32.636 291.09,32.672 290.85,32.925C290.841,32.935 290.921,34.039 290.932,34.051C291.082,34.209 295.726,34.592 298.33,39.584C299.573,41.967 298.317,42.879 301.747,46.242C311.641,55.942 312.306,56.275 316.501,56.331C321.306,56.394 323.088,58.477 331.63,62.207C337.142,64.613 345.929,69.306 350.437,70.69C351.281,70.949 353.432,71.183 353.62,73.489C353.756,75.164 353.285,75.244 354.415,78.528C354.415,78.529 359.159,93.657 360.243,98.557C362.97,110.881 363.967,121.938 366.802,132.418C371.74,150.671 371.024,155.527 371.991,163.44C372.495,167.56 372.823,173.595 372.871,174.48C372.918,175.361 372.85,175.35 373.119,185.511C373.394,195.878 373.038,201.595 373.765,215.483C374.42,227.984 374.05,227.976 374.67,240.49C374.999,247.135 371.97,246.81 367.48,247.065C358.277,247.586 351.894,247.255 350.54,247.185C350.218,247.169 349.896,247.116 349.574,247.132C349.212,247.15 348.854,247.357 348.498,247.287C348.197,247.227 348.044,246.791 347.738,246.767C347.69,246.764 347.8,246.868 347.316,247.197C346.968,247.434 346.923,247.321 346.566,247.563C344.66,250.287 345.821,251.41 345.024,253.329C343.876,256.092 342.416,255.65 336.579,258.652C336.323,258.783 333.878,260.041 333.273,260.079C333.047,260.094 332.829,259.97 332.602,259.969C332.122,259.968 317.372,261.324 311.501,260.493C310.746,260.386 303.153,258.855 301.96,257.163C300.515,255.114 301.93,254.589 299.684,249.419C295.219,239.137 295.353,233.285 295.705,214.504C295.95,201.461 297.496,201.535 297.222,188.505C296.894,172.935 297.419,172.917 297.101,171.602C296.758,170.185 292.213,169.795 291.72,172.536C291.225,175.286 292.505,186.963 291.59,202.506C290.865,214.82 291.725,231.885 290.893,237.554C289.458,247.337 290.624,255.785 281.442,258.277C279.97,258.677 274.778,260.086 262.497,260.415C258.112,260.533 258.083,260.08 257.537,260.082C256.544,260.086 256.58,260.364 255.598,260.278C255.284,260.25 249.829,259.462 249.517,259.403C249.131,259.33 244.818,258.97 243.608,254.469C242.551,250.535 246.95,247.312 247.151,240.467C247.679,222.525 245.703,208.21 246.192,183.494C246.935,145.994 246.945,142.4 246.068,141.99C245.981,141.95 244.755,142.443 244.627,142.595C244.318,142.961 244.26,145.455 243.047,163.475C242.254,175.246 242.642,182.81 241.772,198.514C240.659,218.597 242.942,236.149 239.492,236.425C237.59,236.577 237.538,233.773 237.533,233.491C237.496,231.486 237.571,231.504 237.306,229.495C237.107,227.989 236.588,178.462 237.893,167.542C238.811,159.854 237.963,152.162 242.201,135.425C243.138,131.725 243.105,131.608 241.795,128.375C237.939,118.867 237.75,105.184 235.242,93.554C233.118,83.704 234.221,81.545 232.507,81.518C231.252,81.499 232.401,83.602 230.25,91.431C228.311,98.49 228.635,98.546 225.964,114.58C225.863,115.19 225.871,115.182 223.18,134.46C220.708,152.172 218.585,198.403 218.828,215.496C218.87,218.442 219.057,225.357 219.006,226.578C218.994,226.866 218.833,227.154 218.896,227.435C218.926,227.568 219.217,227.514 219.247,227.648ZM346.909,244.416C347.019,244.44 346.957,244.689 347.066,244.713C347.247,244.752 348.945,245.124 349.359,244.447C349.935,243.506 349.496,241.748 349.44,241.521C349.072,240.046 347.792,238.088 351.527,237.867C355.221,237.649 365.606,238.245 366.904,236.993C368.187,235.755 368.002,230.732 367.817,229.511C367.517,227.529 366.912,223.528 366.464,204.501C366.099,188.985 366.004,189.012 365.579,173.498C365.513,171.085 365.086,155.471 362.832,143.445C361.164,134.548 359.289,119.28 355.668,103.461C353.128,92.361 353.103,92.374 352.884,91.409C352.102,87.963 351.872,84.244 350.626,84.897C349.485,85.496 349.758,86.623 348.749,90.563C346.245,100.344 346.606,111.231 342.063,124.343C341.665,125.491 340.504,128.841 340.977,139.483C341.034,140.779 341.25,145.637 343.423,155.518C344.945,162.441 344.801,162.446 345.961,169.433C347.618,179.417 346.498,217.179 346.335,219.486C345.453,232.038 346.044,233.565 346.158,237.547C346.258,241.014 346.578,240.967 346.909,244.416ZM276.564,119.469C274.839,116.059 274.84,116.077 273.35,112.543C273.045,111.819 270.198,105.067 269.601,103.466C269.512,103.229 268.905,101.601 268.481,100.506C264.04,89.042 265.424,78.86 264.218,78.826C263.897,78.818 263.749,79.27 263.478,79.443C263.294,79.561 262.989,79.505 262.868,79.688C262.188,80.708 263.039,88.746 263.122,89.529C264.144,99.178 270.404,110.673 271.346,113.623C271.668,114.631 272.954,116.632 273.616,118.379C273.684,118.559 274.326,120.252 275.224,120.163C275.724,120.113 276.064,119.519 276.564,119.469ZM281.658,122.416C291.117,139.567 291.339,140.358 292.382,143.572C293.546,147.156 294.694,144.817 294.74,144.616C295.097,143.069 294.13,141.337 292.556,131.491C291.391,124.201 290.76,124.025 287.765,121.204C284.032,117.687 287.593,117.031 287.909,114.55C288.273,111.696 284.685,100.141 285.398,90.492C286.345,77.666 289.085,71.839 289.019,70.511C288.875,67.608 282.053,63.221 284.447,58.471C285.414,56.553 289.378,53.832 286.73,51.259C283.725,48.339 277.966,56.039 272.362,63.4C266.711,70.822 268.753,76.124 268.999,77.412C271.226,89.087 271.905,88.91 274.586,100.479C277.844,114.537 278.329,115.857 281.658,122.416ZM311.428,126.264C311.683,125.923 312.111,125.739 312.367,125.399C312.733,124.911 312.232,124.711 315.131,118.304C319.509,108.625 320.908,100.733 322.194,92.498C322.227,92.29 322.571,90.086 322.019,89.865C321.837,89.792 321.788,90.26 321.593,90.27C321.31,90.285 321.094,89.876 320.816,89.927C319.87,90.1 315.346,106.607 315.104,107.371C312.737,114.857 312.973,114.911 310.992,122.517C310.931,122.75 310.315,125.117 310.512,125.494C310.696,125.847 311.243,125.91 311.428,126.264ZM251.536,68.586C245.292,71.105 235.954,74.502 235.379,75.382C234.493,76.738 234.937,77.14 235.851,80.418C241.275,99.868 240.257,105.202 249.285,125.597C251.154,129.819 249.264,130.079 248.787,131.555C248.365,132.857 249.234,133.084 250.532,148.497C251.011,154.173 251.416,154.157 251.241,181.498C251.195,188.863 251.359,191.621 251.412,192.499C251.71,197.497 251.283,197.51 251.877,202.482C252.004,203.54 253.393,237.869 252.043,242.359C251.619,243.767 249.325,250.157 250.555,251.441C250.677,251.568 250.641,251.713 257.552,253.242C263.852,254.636 279.992,253.663 281.347,253.058C283.945,251.898 284.004,249.7 285.191,241.461C286.88,229.727 287.028,178.193 286.102,173.56C285.824,172.175 282.976,161.737 281.156,156.629C275.201,139.91 274.178,140.359 266.175,123.654C265.477,122.198 261.829,116.305 256.595,95.475C254.187,85.893 258.343,71.575 262.762,66.645C263.166,66.194 264.382,65.212 264.412,64.5C264.416,64.396 264.453,63.512 263.493,63.572C262.968,63.605 252.487,68.172 251.536,68.586ZM291.929,90.503C291.772,98.189 291.657,98.274 292.411,99.626C292.456,99.705 292.997,100.675 293.54,99.543C293.584,99.451 294.006,98.569 294.035,98.374C294.058,98.221 294.002,98.241 294.198,96.45C294.681,92.026 294.489,80.244 293.394,79.63C292.715,79.25 292.659,79.485 292.164,80.081C291.434,80.961 291.847,81.106 291.929,90.503ZM301.781,55.286C301.011,54.336 299.992,52.614 298.552,52.761C297.414,52.876 296.333,54.717 296.008,55.148C293.744,58.164 296.308,59.078 297.484,60.516C302.07,66.129 298.474,67.241 296.703,69.649C294.97,72.005 298.263,77.465 299.018,79.672C302.003,88.4 301.387,94.203 301.252,95.472C301.063,97.255 299.238,105.129 298.832,106.593C297.841,110.168 298.589,112.336 298.406,114.506C298.102,118.108 295.458,117.816 295.887,120.43C295.924,120.656 296.277,122.806 297.488,122.797C298.788,122.788 299.784,119.541 300.209,118.423C300.651,117.262 300.646,117.26 304.12,103.404C306.689,93.155 305.229,85.968 313.737,74.674C315.886,71.821 315.893,71.174 313.385,68.614C310.413,65.579 310.423,65.601 307.579,62.432C304.503,59.004 304.581,58.966 301.781,55.286ZM343.401,95.487C343.534,94.684 344.468,89.015 345.729,85.584C345.965,84.944 348.305,78.579 348.373,77.483C348.485,75.649 347.93,75.786 346.272,74.985C344.692,74.223 333.72,68.927 326.466,65.568C320.059,62.601 319.784,61.7 318.846,62.837C318.29,63.512 319.166,64.498 319.262,64.606C321.333,66.935 323.922,71.774 325.38,76.538C328.396,86.397 327.698,91.227 327.514,92.502C325.598,105.755 325.214,107.33 324.904,108.597C322.092,120.113 322.58,120.254 319.181,129.38C313.647,144.241 304.771,160.441 302.931,168.593C301.82,173.516 301.905,188.048 301.944,189.493C302.214,199.403 300.791,204.503 300.861,217.499C300.991,241.686 305.066,248.903 305.301,249.573C305.413,249.894 306.281,252.368 307.726,253.071C309.503,253.936 327.35,255.273 337.539,252.633C340.517,251.862 339.926,248.857 339.908,246.497C339.837,236.966 339.255,237.024 338.214,227.534C335.561,203.363 337.052,191.667 337.207,174.496C337.217,173.298 337.306,163.438 337.071,159.519C335.764,137.716 337.61,128.893 337.074,127.702C336.531,126.494 334.607,127.341 333.18,125.778C331.208,123.617 334.082,120.87 334.456,120.461C340.044,114.348 341.363,112.857 343.401,95.487Z" style="fill:rgb(26,56,93);"/>
            <path d="M258.606,262.414C258.724,262.577 259.29,262.273 259.605,264.484C261.312,276.481 261.63,297.613 261.673,300.498C262.559,359.416 261.153,359.397 261.531,408.5C261.597,417.014 261.489,416.998 261.597,425.5C261.618,427.115 261.06,429.944 264.525,430.261C271.485,430.897 277.798,430.093 283.517,429.981C286.707,429.919 286.205,428.694 286.202,425.5C286.181,407.482 286.05,407.498 286.302,389.497C286.679,362.635 286.321,330.793 289.644,294.513C290.799,281.892 291.478,277.964 291.724,276.538C292.652,271.165 293.266,264.42 293.922,263.943C293.975,263.905 295.138,263.865 295.202,263.9C296.77,264.76 299.175,291.808 299.711,303.492C300.972,330.999 301.278,330.968 301.761,358.495C302.156,381.036 302.918,385.445 301.765,425.507C301.724,426.904 301.445,428.797 302.289,429.697C302.878,430.325 302.962,430.709 314.5,430.494C320.528,430.381 326.62,430.059 327.599,429.862C329.125,429.556 329.215,427.714 329.226,427.484C329.4,423.905 328.73,406.624 329.066,379.494C329.122,374.935 329.063,374.938 329.282,322.499C329.337,309.44 329.299,286.07 330.018,276.467C330.102,275.341 330.487,263.21 330.881,262.606C331.007,262.413 333.028,262.322 333.251,262.605C334.005,263.561 334.654,293.816 335.017,303.51C335.157,307.268 335.056,307.267 336.263,350.508C337.174,383.126 335.931,428.81 335.436,431.488C334.749,435.211 331.167,435.731 324.572,436.908C315.303,438.561 296.827,438.802 295.831,431.448C295.171,426.568 295.955,364.793 295.888,355.497C295.679,326.509 295.355,326.531 295.235,297.528C295.228,295.94 295.316,295.864 294.85,295.146C294.405,294.463 294.307,294.233 293.606,294.661C292.522,295.324 292.838,300.855 292.457,315.498C292.085,329.783 292.574,332.798 291.997,355.505C291.628,370.016 292.966,426.583 292.265,430.463C292.009,431.878 291.965,436.019 279.508,437.564C272.41,438.444 257.137,437.372 255.692,432.438C255.14,430.552 255.61,418.02 254.657,382.496C254.4,372.885 254.052,338.347 254.014,334.507C253.718,305.148 254.859,264.891 255.949,262.62C256.012,262.489 256.17,262.392 256.315,262.383C256.41,262.377 256.374,262.508 257.502,262.523C258.072,262.531 258.046,262.407 258.606,262.414Z" style="fill:rgb(26,56,93);"/>
            <path d="M106.055,117.13C105.993,116.895 105.709,116.762 105.647,116.528C105.556,116.187 105.663,115.819 105.615,115.469C105.568,115.133 105.348,114.821 105.366,114.483C105.486,112.257 110.15,113.592 118.507,114.423C129.314,115.498 141.317,111.682 141.194,115.483C141.172,116.148 141.145,116.986 133.57,118.811C118.639,122.409 110.547,121.394 108.552,121.144C108.173,121.096 103.177,120.469 105.48,117.488C105.618,117.31 105.917,117.308 106.055,117.13Z" style="fill:rgb(26,56,93);"/>
            <path d="M139.54,84.812C125.203,86.711 104.067,85.435 102.566,83.452C102.37,83.192 102.531,82.087 102.784,81.903C104.229,80.854 108.374,82.77 136.503,80.541C141.008,80.184 147.331,80.232 148.011,80.992C148.764,81.834 147.838,82.607 147.732,82.696C146.333,83.864 140.21,84.718 139.54,84.812Z" style="fill:rgb(26,56,93);"/>
            <path d="M94.345,188.48C94.942,184.519 96.009,177.816 97.857,171.612C101.668,158.814 101.429,158.76 101.84,157.675C101.915,157.476 102.121,157.347 102.208,157.153C102.314,156.917 102.174,156.503 102.412,156.403C102.727,156.272 103.117,156.468 103.404,156.653C104.779,157.539 104.145,157.891 103.784,159.494C101.566,169.341 98.96,184.217 97.226,191.429C94.762,201.681 94.996,201.733 94.734,202.611C94.691,202.753 94.349,203.902 93.449,203.942C91.193,204.042 93.344,197.15 94.345,188.48Z" style="fill:rgb(26,56,93);"/>
            <path d="M262.531,196.834C276.399,195.726 279.008,195.249 279.782,197.365C282.26,204.141 260.516,203.335 257.518,202.429C255.105,201.699 254.384,200.871 254.466,199.493C254.476,199.334 254.531,198.41 255.696,197.927C256.911,197.424 261.98,196.892 262.531,196.834Z" style="fill:rgb(26,56,93);"/>
            <path d="M315.484,197.63C310.593,196.984 305.521,196.527 305.553,194.501C305.566,193.693 305.592,192.032 315.542,193.024C326.5,194.118 326.878,193.277 330.481,193.641C335.027,194.1 333.925,197.077 332.626,197.723C328.349,199.849 319.687,198.144 315.484,197.63Z" style="fill:rgb(26,56,93);"/>
            <path d="M261.523,187.855C262.248,187.796 267.343,187.382 270.536,186.662C272.156,186.297 276.183,185.064 277.541,185.194C279.697,185.4 279.391,187.204 279.291,187.426C278.119,190.011 267.357,193.284 261.508,193.18C252.101,193.013 254.297,189.294 254.795,188.897C255.811,188.086 260.979,187.877 261.523,187.855Z" style="fill:rgb(26,56,93);"/>
            <path d="M317.474,189.648C315.705,189.283 315.714,189.295 315.564,189.254C307.431,187.019 307.465,186.211 307.494,185.5C307.545,184.276 309.119,184.115 314.506,184.347C319.004,184.541 329.207,186.056 329.587,186.149C329.919,186.23 334.171,187.273 332.376,189.382C330.823,191.205 318.658,189.787 317.474,189.648Z" style="fill:rgb(26,56,93);"/>
            <path d="M355.466,233.749C355.077,233.675 352.079,233.111 350.786,232.117C344.644,227.396 360.712,226.884 364.643,229.288C365.308,229.694 365.24,229.79 365.288,230.568C365.336,231.344 365.625,232.598 363.462,233.403C360.602,234.467 356.856,233.875 355.466,233.749Z" style="fill:rgb(26,56,93);"/>
            <path d="M219.247,227.648C219.758,227.779 219.607,228.373 221.471,228.22C221.553,228.213 222.239,228.157 222.489,228.151C232.705,227.923 234.024,229.607 234.634,230.384C234.778,230.569 235.046,230.686 235.098,230.915C235.141,231.105 234.872,231.262 234.877,231.457C234.881,231.606 235.359,231.944 234.813,232.759C233.729,234.376 230.131,234.144 227.455,233.914C219.996,233.272 220.379,231.026 220.103,230.827C219.936,230.707 219.687,230.87 219.5,230.954C219.165,231.106 218.891,231.374 218.555,231.525C218.219,229.686 218.154,229.7 218.193,229.543C218.193,229.543 219.162,227.799 219.247,227.648Z" style="fill:rgb(26,56,93);"/>
            <path d="M319.44,206.678C317.88,206.083 317.014,205.883 316.022,204.728C315.561,204.191 315.514,202.828 317.504,202.515C318.793,202.312 326.583,202.35 327.505,202.394C333.187,202.667 332.919,206.72 329.392,207.156C323.9,207.836 322.648,207.467 319.44,206.678Z" style="fill:rgb(26,56,93);"/>
            <path d="M116.552,65.526C116.705,65.282 116.785,64.997 116.938,64.753C119.057,61.365 120.969,63.279 121.133,65.532C121.514,70.766 116.472,74.603 115.325,71.592C114.492,69.407 116.518,65.606 116.552,65.526Z" style="fill:rgb(26,56,93);"/>
            <path d="M341.674,226.5C341.766,226.868 342.287,227.026 342.379,227.394C342.441,227.641 342.295,227.972 342.071,228.092C341.617,228.337 341.512,227.915 341.5,227.867C341.325,227.168 341.848,227.197 341.674,226.5Z" style="fill:rgb(26,56,93);"/>
            <path d="M341.881,169.22C341.91,169.365 342.114,169.432 342.143,169.577C342.143,169.577 342.22,171.431 342.227,171.593C342.178,171.399 341.947,171.284 341.899,171.09C341.863,170.945 341.898,170.952 341.881,169.22Z" style="fill:rgb(26,56,93);"/>
        </g>
    </g>
</svg>
